<?xml version="1.0" standalone="no"?>
<!DOCTYPE svg PUBLIC "-//W3C//DTD SVG 20010904//EN"
 "http://www.w3.org/TR/2001/REC-SVG-20010904/DTD/svg10.dtd">
<svg version="1.0" xmlns="http://www.w3.org/2000/svg"
 width="512.000000pt" height="512.000000pt" viewBox="0 0 512.000000 512.000000"
 preserveAspectRatio="xMidYMid meet">
<metadata>
Created by potrace 1.14, written by Peter Selinger 2001-2017
</metadata>
<g transform="translate(0.000000,512.000000) scale(0.100000,-0.100000)"
fill="#000000" stroke="none">
<path d="M3050 5049 c-19 -4 -51 -11 -70 -14 -45 -7 -317 -54 -350 -60 -14 -3
-77 -14 -140 -25 -63 -11 -137 -25 -165 -30 -50 -9 -95 -17 -150 -25 -16 -3
-52 -9 -80 -15 -44 -8 -186 -33 -345 -61 -30 -5 -65 -11 -78 -14 -13 -2 -76
-13 -140 -24 -64 -12 -128 -23 -142 -26 -14 -3 -48 -6 -77 -6 -46 0 -55 -3
-77 -30 -31 -36 -33 -62 -8 -87 10 -10 38 -72 61 -138 24 -65 51 -141 61 -169
11 -27 44 -122 76 -210 59 -169 122 -347 197 -557 l46 -127 -184 -131 -184
-131 -38 25 c-76 50 -181 54 -272 10 l-53 -27 -287 286 c-157 157 -293 286
-301 287 -34 5 -50 -1 -64 -22 -8 -13 -46 -198 -85 -413 -39 -214 -73 -401
-76 -415 -3 -14 -8 -40 -11 -59 -3 -18 -8 -43 -10 -55 -2 -11 -8 -46 -14 -76
-12 -71 -17 -98 -36 -193 -9 -44 -17 -92 -19 -108 -2 -17 -11 -67 -20 -112
l-17 -82 37 -123 c20 -68 38 -131 40 -140 2 -10 24 -84 48 -167 25 -82 68
-231 97 -330 28 -99 55 -191 60 -205 5 -14 26 -85 46 -157 l38 -133 -42 -35
c-148 -127 -111 -376 68 -458 63 -29 169 -28 228 2 56 29 78 47 114 99 20 30
35 41 46 38 18 -6 185 -38 587 -111 56 -11 360 -67 380 -71 11 -2 72 -13 135
-25 113 -20 245 -45 286 -54 17 -4 22 -14 26 -48 26 -227 307 -327 467 -165
58 59 76 103 76 193 0 89 -20 139 -74 192 l-29 28 49 93 c27 50 72 136 100
190 29 53 64 120 79 147 28 51 39 72 230 430 62 116 114 212 116 214 2 2 422
4 934 4 898 0 930 1 950 19 11 10 20 28 20 40 0 12 -25 100 -56 197 -30 97
-80 255 -110 351 -31 96 -71 222 -89 280 -19 58 -56 177 -84 265 -27 88 -70
225 -96 305 -25 80 -48 152 -50 160 -2 8 -10 35 -18 60 -8 25 -29 90 -46 145
-17 55 -41 129 -53 164 -20 61 -20 64 -3 74 31 17 81 74 101 114 27 55 29 175
3 229 -27 56 -75 106 -129 135 -67 35 -177 34 -246 -2 l-51 -26 -35 31 c-54
48 -161 142 -187 165 -12 11 -55 49 -95 84 -39 35 -89 79 -111 98 -21 19 -46
41 -55 49 -9 8 -49 44 -90 80 -40 36 -78 70 -84 75 -10 9 -164 146 -192 170
-6 6 -43 39 -83 74 -124 111 -122 110 -201 90z m-32 -161 c-3 -13 -22 -98 -43
-189 l-38 -167 -51 -7 c-70 -9 -131 -41 -177 -94 l-39 -44 -143 35 c-78 20
-306 77 -507 128 -394 100 -388 98 -410 100 -37 2 22 19 140 39 69 12 136 23
150 26 14 3 118 21 231 40 113 20 217 38 230 40 26 5 184 33 234 41 17 3 37 7
45 9 8 2 31 6 50 9 19 3 58 10 87 15 29 6 71 13 95 16 24 4 59 10 78 15 62 14
73 12 68 -12z m228 -96 c69 -63 92 -84 198 -177 44 -39 87 -77 96 -85 15 -14
116 -103 170 -150 14 -12 41 -36 60 -53 19 -18 73 -66 120 -107 47 -41 101
-89 120 -107 19 -17 47 -42 63 -55 34 -29 35 -40 2 -28 -18 7 -582 151 -680
174 -187 43 -205 50 -205 74 0 21 -37 120 -49 132 -4 3 -23 24 -44 46 l-37 40
40 175 c22 95 43 180 45 187 6 17 19 8 101 -66z m-1573 -288 c144 -36 269 -67
277 -69 57 -13 682 -174 685 -176 1 -2 5 -20 8 -39 3 -19 8 -46 11 -60 6 -23
-14 -40 -310 -250 -175 -124 -372 -264 -438 -312 -67 -47 -124 -83 -127 -80
-4 4 -69 180 -144 392 -75 212 -155 435 -177 495 -48 132 -58 165 -52 165 3 0
123 -30 267 -66z m1962 -495 c242 -61 443 -113 447 -117 3 -4 8 -20 10 -37 2
-16 12 -44 21 -62 21 -40 21 -35 -5 -65 -13 -13 -61 -66 -108 -117 -47 -52
-92 -102 -101 -112 -14 -16 -151 -168 -184 -203 -5 -6 -50 -56 -100 -111 -146
-162 -169 -187 -195 -215 -14 -14 -56 -62 -95 -104 -38 -43 -81 -91 -95 -106
-42 -46 -184 -202 -200 -220 -8 -10 -49 -54 -90 -100 -41 -46 -82 -91 -90
-101 -9 -9 -40 -44 -70 -76 -30 -33 -89 -97 -130 -142 -130 -145 -190 -206
-186 -191 6 18 86 361 96 410 4 19 69 298 143 620 75 322 157 673 182 780 24
107 47 205 50 216 3 15 15 24 38 28 67 13 130 57 174 124 10 14 22 20 32 17 9
-3 215 -55 456 -116z m-971 -41 c-11 -20 -68 -102 -74 -108 -3 -3 -59 -84
-124 -180 -65 -96 -141 -209 -170 -250 -78 -113 -194 -282 -259 -379 -33 -47
-60 -87 -62 -89 -1 -1 -17 39 -34 90 -18 51 -50 142 -72 202 -22 60 -38 116
-37 123 2 7 136 108 298 223 162 115 304 216 315 224 51 37 220 156 223 156 2
0 0 -6 -4 -12z m56 -370 c-39 -166 -82 -348 -95 -403 -13 -55 -38 -163 -55
-240 -16 -77 -35 -158 -41 -179 -6 -22 -12 -46 -14 -55 -5 -25 -40 -176 -101
-436 -30 -132 -57 -249 -60 -260 -18 -85 -19 -85 -46 -5 -14 41 -49 140 -78
220 -60 170 -140 395 -176 497 l-26 72 118 173 c65 95 135 198 156 228 21 30
77 111 124 180 47 69 139 204 206 300 66 96 128 187 137 202 9 15 17 24 19 19
2 -5 -29 -146 -68 -313z m1646 38 c0 -1 151 -481 251 -801 19 -60 52 -166 74
-235 62 -194 84 -263 134 -425 26 -82 66 -211 90 -285 l43 -135 -836 -3 c-459
-1 -837 0 -840 2 -2 3 16 42 41 88 24 46 68 128 97 183 29 55 65 123 80 150
31 56 75 139 142 265 25 47 61 114 80 150 19 36 59 110 88 165 29 55 63 118
75 140 12 22 48 90 80 150 32 61 92 173 133 250 41 77 93 174 115 215 75 142
73 139 115 133 20 -3 37 -6 38 -7z m-3742 -325 l238 -238 -9 -45 c-10 -44 -9
-79 2 -143 5 -29 -2 -35 -242 -205 -384 -273 -453 -320 -453 -311 0 5 7 44 15
87 21 116 27 147 31 169 5 33 52 286 64 345 6 30 13 71 16 90 3 19 11 67 19
105 7 39 16 86 19 105 3 19 8 46 11 60 3 14 13 69 22 123 10 53 20 97 23 97 3
0 112 -107 244 -239z m3377 78 c-16 -30 -51 -94 -77 -144 -25 -49 -59 -112
-74 -140 -34 -63 -94 -175 -155 -290 -26 -49 -64 -121 -85 -160 -21 -38 -55
-104 -78 -145 -22 -41 -55 -104 -74 -140 -55 -102 -200 -375 -258 -485 -29
-55 -58 -108 -64 -117 -10 -16 -34 -18 -264 -18 l-252 0 -12 28 c-7 15 -19 35
-27 45 -13 15 -12 19 5 36 10 10 51 53 89 96 39 43 81 90 94 104 12 14 55 62
95 105 39 44 82 91 96 106 23 25 125 138 215 238 22 25 56 62 75 82 19 20 67
72 105 115 39 44 79 89 90 101 122 133 183 200 195 214 8 9 51 57 95 105 44
48 89 97 100 110 11 12 56 62 100 110 44 48 82 92 84 97 1 5 5 7 8 5 2 -3 -9
-29 -26 -58z m-2276 -111 c4 -13 41 -119 83 -236 l75 -212 -107 -158 c-59 -86
-114 -166 -122 -177 -14 -18 -22 -12 -167 133 l-153 153 29 59 c29 57 32 90
24 202 -2 25 14 39 158 142 88 63 163 115 167 116 4 0 10 -10 13 -22z m-731
-558 c48 -25 70 -30 125 -29 36 0 75 4 86 9 17 7 47 -18 192 -162 l171 -171
-42 -61 c-66 -95 -196 -284 -248 -361 -26 -38 -51 -74 -55 -80 -7 -9 -95 -138
-198 -290 -22 -33 -42 -62 -45 -65 -3 -3 -34 -48 -69 -100 -61 -91 -99 -147
-238 -347 -60 -87 -65 -92 -89 -83 -14 6 -40 10 -59 10 -39 0 -27 -30 -139
355 -30 105 -67 231 -81 280 -71 242 -154 532 -157 547 -2 12 104 93 391 297
217 155 395 281 395 281 1 0 28 -14 60 -30z m979 -140 c46 -134 177 -504 186
-525 5 -11 16 -40 24 -65 8 -25 18 -54 22 -65 4 -11 -99 86 -229 215 -130 129
-236 238 -236 243 0 17 193 288 200 280 4 -4 19 -42 33 -83z m-82 -536 l226
-226 -18 -49 c-11 -27 -19 -73 -19 -102 0 -51 -1 -53 -37 -69 -21 -10 -69 -35
-108 -56 -38 -21 -119 -64 -180 -96 -60 -33 -123 -67 -140 -76 -16 -10 -75
-41 -130 -70 -87 -46 -226 -121 -595 -318 -47 -25 -104 -56 -127 -69 -24 -13
-43 -21 -43 -17 0 3 48 76 107 162 59 87 125 184 148 217 22 33 42 62 45 65 3
3 23 32 45 65 128 189 190 281 195 285 3 3 43 61 90 130 46 69 98 145 115 170
16 25 32 47 35 50 3 3 39 55 80 117 41 62 77 113 80 113 3 0 107 -102 231
-226z m1141 -423 l26 -1 -57 -107 c-32 -60 -78 -146 -103 -193 -58 -109 -112
-210 -153 -285 -18 -33 -61 -114 -95 -180 -106 -200 -140 -260 -141 -250 0 6
-2 21 -4 35 -1 14 -6 68 -10 120 -4 52 -8 109 -10 125 -1 17 -6 73 -10 125 -4
52 -8 111 -10 130 -2 19 -6 76 -10 125 -3 50 -8 102 -11 117 -3 23 1 30 31 44
55 26 112 88 132 143 14 40 22 51 43 53 20 2 268 2 382 -1z m-882 -136 c23
-27 70 -57 117 -74 51 -18 49 -12 58 -146 3 -49 8 -106 10 -125 2 -19 7 -73
10 -120 13 -170 14 -186 20 -240 3 -30 7 -87 10 -125 l6 -71 -35 -12 c-19 -7
-53 -33 -75 -58 -49 -52 -28 -52 -281 -4 -91 17 -189 35 -218 40 -30 5 -61 11
-70 14 -10 3 -33 7 -52 10 -19 3 -60 10 -90 16 -30 6 -70 13 -89 16 -18 3 -43
8 -55 10 -11 2 -46 8 -76 14 -30 6 -66 12 -80 15 -14 3 -50 9 -80 15 -30 6
-64 12 -75 14 -198 38 -256 48 -284 52 -32 4 -50 17 -51 36 0 10 32 28 325
183 50 26 104 55 120 65 17 10 84 46 150 80 66 35 172 91 235 125 163 88 229
123 365 195 66 35 129 69 140 77 25 17 30 16 45 -2z"/>
</g>
</svg>
