<svg viewBox="43.207 123.204 423.875 263.881" xmlns="http://www.w3.org/2000/svg" x="0" y="0" style="overflow: visible;">
  <g id="_CZsm_wCQ7c3IgxeylXQiM" transform="matrix(1.2162474393844604, 0, 0, 1.2162474393844604, 7.332653999328613, -44.765953063964844)">
    <path id="_nYrdhAiyt-4ci4TBfdLLz" d="M47.69,90.25c-0.069,0-0.14-0.006-0.21-0.02l-34.722-6.439c-0.624-0.115-1.036-0.715-0.921-1.34   c0.116-0.623,0.717-1.037,1.34-0.92l33.245,6.164l-1.82-22.307l-18.92-53.09c-0.214-0.598,0.099-1.256,0.697-1.469   c0.598-0.213,1.255,0.099,1.469,0.697L46.819,64.76c0.033,0.094,0.055,0.191,0.062,0.293l1.955,23.953   c0.028,0.357-0.11,0.707-0.376,0.947C48.248,90.145,47.973,90.25,47.69,90.25z" fill="#ffab4a" transform="matrix(2.3875880241394043, 0, 0, 2.3875880241394043, 24.424518585205078, 128.12120056152344)"></path>
    <path id="_7-TNYczNWwjvDZVmHMsj0" d="M47.689,90.25c-0.183,0-0.367-0.043-0.54-0.135c-0.561-0.301-0.772-0.996-0.474-1.557l33.803-63.391   c0.299-0.56,0.995-0.772,1.556-0.474c0.56,0.299,0.771,0.996,0.474,1.556L48.705,89.641C48.498,90.029,48.101,90.25,47.689,90.25z" fill="#ff6b4a" transform="matrix(2.3875880241394043, 0, 0, 2.3875880241394043, 23.89333724975586, 128.6082305908203)"></path>
    <path id="_HmtDiMQRhI5IEVQ9RVaWU" d="M45.737,66.295c-0.077,0-0.155-0.008-0.233-0.023l0,0c-0.001,0-0.002,0-0.002,0c-0.017-0.004-0.032-0.008-0.047-0.012l0,0   c-0.003,0-0.004,0-0.006-0.002l0,0c-0.213-0.055-0.396-0.164-0.539-0.312L10.716,31.75L6.281,55.965   c-0.114,0.625-0.714,1.037-1.338,0.924c-0.625-0.115-1.038-0.715-0.924-1.338l4.829-26.37c0.076-0.42,0.381-0.763,0.788-0.891   c0.408-0.127,0.854-0.018,1.155,0.285l34.292,34.292l9.896-42.656l-28.495-7.184c-0.526-0.132-0.888-0.614-0.868-1.156   s0.416-0.997,0.949-1.091l32.653-5.749c0.38-0.067,0.769,0.062,1.033,0.341c0.266,0.28,0.373,0.675,0.286,1.051l-2.81,12.109   l24.046,6.062c0.391,0.099,0.702,0.396,0.819,0.782c0.116,0.386,0.022,0.806-0.249,1.105L46.603,65.9   c-0.065,0.076-0.141,0.143-0.224,0.197c0,0.002-0.001,0.002-0.001,0.002c-0.001,0-0.001,0-0.002,0l-0.001,0.002   c-0.001,0-0.001,0-0.001,0c-0.017,0.012-0.032,0.021-0.049,0.031c-0.001,0-0.001,0-0.001,0c-0.001,0-0.001,0-0.002,0.002h-0.001   c-0.001,0-0.001,0-0.001,0C46.146,66.238,45.945,66.295,45.737,66.295z M57.209,20.773l-9.354,40.323l31.499-34.74L57.209,20.773z    M32.262,12.112l23.237,5.858l2.406-10.373L32.262,12.112z" fill="#ff4a4a" transform="matrix(2.3875880241394043, 0, 0, 2.3875880241394043, 23.886180877685547, 128.81785583496094)"></path>
    <path id="_-g4FECiGjDeGPmN7mAvTs" d="M12.968,83.811c-0.145,0-0.287-0.027-0.419-0.078c-0.101-0.041-0.197-0.094-0.285-0.162   c-0.15-0.117-0.273-0.273-0.353-0.457c-0.02-0.047-0.037-0.096-0.05-0.143L4.046,56.078c-0.136-0.471,0.039-0.975,0.438-1.258   l51.203-36.386c0.455-0.323,1.075-0.273,1.473,0.117s0.457,1.01,0.143,1.47L16.579,79.428l28.615-15.297   c0.166-0.088,0.353-0.135,0.542-0.135h46.606L80.492,26.358L58.655,7.024c-0.475-0.421-0.52-1.147-0.098-1.623   c0.42-0.475,1.147-0.52,1.622-0.099l22.075,19.545c0.156,0.139,0.272,0.317,0.335,0.516l12.417,39.437   c0.109,0.348,0.047,0.729-0.17,1.023c-0.217,0.297-0.561,0.471-0.927,0.471H46.024L13.532,83.664   c-0.051,0.027-0.104,0.053-0.159,0.074c-0.069,0.025-0.141,0.045-0.212,0.057C13.097,83.807,13.032,83.811,12.968,83.811z    M6.482,56.221l6.912,23.785l38.356-55.953L6.482,56.221z" fill="#ff954a" transform="matrix(2.3875880241394043, 0, 0, 2.3875880241394043, 23.98843765258789, 128.7154083251953)"></path>
    <circle id="_lH_QpX3A2RgCO2VtGtMus" cx="55.538" cy="19.677" r="4.901" fill="#ff4a4a" transform="matrix(2.3875880241394043, 0, 0, 2.3875880241394043, 24.87227439880371, 128.0879364013672)"></circle>
    <circle id="_zwePDHih4GevDIq5w3Req" cx="23.472" cy="42.596" r="4.9" fill="#ff6b4a" transform="matrix(2.3875880241394043, 0, 0, 2.3875880241394043, 25.028173446655273, 128.2785186767578)"></circle>
    <circle id="__bp6clTczT-DT51RP1Js7" cx="45.736" cy="65.145" r="4.901" fill="#ff954a" transform="matrix(2.3875880241394043, 0, 0, 2.3875880241394043, 24.40011978149414, 129.35693359375)"></circle>
    <circle id="_4I73MY35XrjAje_94NhqE" cx="12.968" cy="82.662" r="4.901" fill="#ffab4a" transform="matrix(2.3875880241394043, 0, 0, 2.3875880241394043, 23.846981048583984, 128.12213134765625)"></circle>
    <circle id="_Em4M5ckx9HQ3l5_UxbT-2" cx="81.493" cy="25.552" r="4.901" fill="#ffab4a" transform="matrix(2.3875880241394043, 0, 0, 2.3875880241394043, 24.331098556518555, 128.38638305664062)"></circle>
    <circle id="_MuuO6Z994e7NcdK4w4UM3" cx="47.69" cy="89.1" r="4.9" fill="#ff6b4a" transform="matrix(2.3875880241394043, 0, 0, 2.3875880241394043, 24.50743865966797, 129.4617462158203)"></circle>
  </g>
  <path id="_Z0YrQ9icz1cHOvm_GQPbH" fill="#4f76e2" transform="matrix(0.7842150330543518, 0, 0, 0.7842150330543518, 184.8040771484375, 307.16796875)" text="JIRA" text-anchor="start" font-size="100" letter-spacing="0" side="left" offset="0" dx="0" dy="0" space="preserve" href="" font-family="Bungee" font-scale="contain" x="0" y="0" data-fl-textpath="" d="M 62.4-68.4L 62.4-18.9Q 62.4-14.3  61.1-10.55Q 59.8-6.8  56.55-4.15Q 53.3-1.5  47.6 0Q 41.9 1.5  33.1 1.5L 33.1 1.5Q 24.4 1.5  18.75 0Q 13.1-1.5  9.85-4.15Q 6.6-6.8  5.35-10.55Q 4.1-14.3  4.1-18.9L 4.1-18.9L 4.1-35.1Q 4.1-37  4.95-37.85Q 5.8-38.7  7.7-38.7L 7.7-38.7L 22.2-38.7Q 24.1-38.7  24.95-37.85Q 25.8-37  25.8-35.1L 25.8-35.1L 25.8-22.9Q 25.8-20.9  27.05-19.55Q 28.3-18.2  32.9-18.2L 32.9-18.2Q 37.2-18.2  38.35-19.55Q 39.5-20.9  39.5-22.9L 39.5-22.9L 39.5-68.4Q 39.5-70.3  40.35-71.15Q 41.2-72  43.1-72L 43.1-72L 58.8-72Q 60.7-72  61.55-71.15Q 62.4-70.3  62.4-68.4L 62.4-68.4ZM 120.3 0L 77.7 0Q 75.8 0  74.95-0.85Q 74.1-1.7  74.1-3.6L 74.1-3.6L 74.1-15.5Q 74.1-17.4  74.95-18.25Q 75.8-19.1  77.7-19.1L 77.7-19.1L 87.6-19.1L 87.6-52.7L 77.7-52.7Q 75.8-52.7  74.95-53.55Q 74.1-54.4  74.1-56.3L 74.1-56.3L 74.1-68.4Q 74.1-70.3  74.95-71.15Q 75.8-72  77.7-72L 77.7-72L 120.3-72Q 122.19999999999999-72  123.05-71.15Q 123.9-70.3  123.9-68.4L 123.9-68.4L 123.9-56.3Q 123.9-54.4  123.05-53.55Q 122.19999999999999-52.7  120.3-52.7L 120.3-52.7L 110.6-52.7L 110.6-19.1L 120.3-19.1Q 122.19999999999999-19.1  123.05-18.25Q 123.9-17.4  123.9-15.5L 123.9-15.5L 123.9-3.6Q 123.9-1.7  123.05-0.85Q 122.19999999999999 0  120.3 0L 120.3 0ZM 166.3-54L 158.8-54L 158.8-41.2L 166.3-41.2Q 168.9-41.2  169.8-42.55Q 170.70000000000002-43.9  170.70000000000002-45.9L 170.70000000000002-45.9L 170.70000000000002-49.3Q 170.70000000000002-51.3  169.8-52.65Q 168.9-54  166.3-54L 166.3-54ZM 155.20000000000002 0L 155.20000000000002 0L 139.8 0Q 137.9 0  137.05-0.85Q 136.20000000000002-1.7  136.20000000000002-3.6L 136.20000000000002-3.6L 136.20000000000002-68.4Q 136.20000000000002-70.3  137.05-71.15Q 137.9-72  139.8-72L 139.8-72L 173.10000000000002-72Q 184.3-72  188.55-67.35Q 192.8-62.7  192.8-55.3L 192.8-55.3L 192.8-50.7Q 192.8-46.5  191.55-43.55Q 190.3-40.6  187.20000000000002-39.3L 187.20000000000002-39.3Q 192.60000000000002-38.7  195.95000000000002-34.9Q 199.3-31.1  199.3-24.8L 199.3-24.8L 199.3-3.6Q 199.3-1.7  198.45000000000002-0.85Q 197.60000000000002 0  195.70000000000002 0L 195.70000000000002 0L 180.20000000000002 0Q 178.3 0  177.45000000000002-0.85Q 176.60000000000002-1.7  176.60000000000002-3.6L 176.60000000000002-3.6L 176.60000000000002-18.9Q 176.60000000000002-21.1  175.75-22.15Q 174.9-23.2  172.8-23.2L 172.8-23.2L 158.8-23.2L 158.8-3.6Q 158.8-1.7  157.95000000000002-0.85Q 157.10000000000002 0  155.20000000000002 0ZM 236.60000000000002-51L 236.60000000000002-51L 231.90000000000003-35.8L 247.60000000000002-35.8L 242.90000000000003-51Q 242.50000000000003-51.9  242.05-52.3Q 241.60000000000002-52.7  241.00000000000003-52.7L 241.00000000000003-52.7L 238.50000000000003-52.7Q 237.90000000000003-52.7  237.45000000000002-52.3Q 237.00000000000003-51.9  236.60000000000002-51ZM 230.90000000000003-17.6L 230.90000000000003-3.6Q 230.90000000000003-1.7  230.05-0.85Q 229.20000000000002 0  227.3 0L 227.3 0L 212.60000000000002 0Q 210.70000000000002 0  209.85000000000002-0.85Q 209.00000000000003-1.7  209.00000000000003-3.6L 209.00000000000003-3.6L 209.00000000000003-30Q 209.00000000000003-33  209.95000000000002-36.9Q 210.90000000000003-40.8  212.90000000000003-46L 212.90000000000003-46L 221.60000000000002-68.7Q 222.20000000000002-70.4  223.45000000000002-71.2Q 224.70000000000002-72  226.70000000000002-72L 226.70000000000002-72L 253.60000000000002-72Q 255.50000000000003-72  256.75-71.2Q 258-70.4  258.6-68.7L 258.6-68.7L 267.3-46Q 269.3-40.8  270.25-36.9Q 271.20000000000005-33  271.20000000000005-30L 271.20000000000005-30L 271.20000000000005-3.6Q 271.20000000000005-1.7  270.35-0.85Q 269.5 0  267.6 0L 267.6 0L 252.50000000000003 0Q 250.50000000000003 0  249.55-0.85Q 248.60000000000002-1.7  248.60000000000002-3.6L 248.60000000000002-3.6L 248.60000000000002-17.6L 230.90000000000003-17.6Z"></path>
  <path id="_eEteVYS_4MtFquPhnNs8m" fill="#000000" transform="matrix(0.7842150330543518, 0, 0, 0.7842150330543518, 185.36839294433594, 372.24859619140625)" text="GRAPH" text-anchor="start" font-size="100" letter-spacing="0" side="left" offset="0" dx="0" dy="0" space="preserve" href="" font-family="Bungee" font-scale="contain" x="0" y="0" data-fl-textpath="" d="M 61.9 0L 61.9 0L 30.4 0Q 17.9 0  11.85-5Q 5.8-10  5.8-20.4L 5.8-20.4L 5.8-51.6Q 5.8-62  11.85-67Q 17.9-72  30.4-72L 30.4-72L 55.4-72Q 57.3-72  58.15-71.15Q 59-70.3  59-68.4L 59-68.4L 59-56.3Q 59-54.4  58.15-53.55Q 57.3-52.7  55.4-52.7L 55.4-52.7L 34.6-52.7Q 31.5-52.7  30-51.45Q 28.5-50.2  28.5-47.7L 28.5-47.7L 28.5-23.8Q 28.5-21.3  29.65-20.1Q 30.8-18.9  33.1-18.9L 33.1-18.9L 42.8-18.9L 42.8-34.5Q 42.8-36.4  43.65-37.25Q 44.5-38.1  46.4-38.1L 46.4-38.1L 61.9-38.1Q 63.8-38.1  64.65-37.25Q 65.5-36.4  65.5-34.5L 65.5-34.5L 65.5-3.6Q 65.5-1.7  64.65-0.85Q 63.8 0  61.9 0ZM 107.79999999999998-54L 100.29999999999998-54L 100.29999999999998-41.2L 107.79999999999998-41.2Q 110.39999999999998-41.2  111.29999999999998-42.55Q 112.19999999999999-43.9  112.19999999999999-45.9L 112.19999999999999-45.9L 112.19999999999999-49.3Q 112.19999999999999-51.3  111.29999999999998-52.65Q 110.39999999999998-54  107.79999999999998-54L 107.79999999999998-54ZM 96.69999999999999 0L 96.69999999999999 0L 81.29999999999998 0Q 79.39999999999998 0  78.54999999999998-0.85Q 77.69999999999999-1.7  77.69999999999999-3.6L 77.69999999999999-3.6L 77.69999999999999-68.4Q 77.69999999999999-70.3  78.54999999999998-71.15Q 79.39999999999998-72  81.29999999999998-72L 81.29999999999998-72L 114.59999999999998-72Q 125.79999999999998-72  130.04999999999998-67.35Q 134.29999999999998-62.7  134.29999999999998-55.3L 134.29999999999998-55.3L 134.29999999999998-50.7Q 134.29999999999998-46.5  133.04999999999998-43.55Q 131.79999999999998-40.6  128.7-39.3L 128.7-39.3Q 134.09999999999997-38.7  137.45-34.9Q 140.79999999999998-31.1  140.79999999999998-24.8L 140.79999999999998-24.8L 140.79999999999998-3.6Q 140.79999999999998-1.7  139.95-0.85Q 139.09999999999997 0  137.2 0L 137.2 0L 121.69999999999999 0Q 119.79999999999998 0  118.94999999999999-0.85Q 118.09999999999998-1.7  118.09999999999998-3.6L 118.09999999999998-3.6L 118.09999999999998-18.9Q 118.09999999999998-21.1  117.24999999999999-22.15Q 116.39999999999998-23.2  114.29999999999998-23.2L 114.29999999999998-23.2L 100.29999999999998-23.2L 100.29999999999998-3.6Q 100.29999999999998-1.7  99.44999999999999-0.85Q 98.59999999999998 0  96.69999999999999 0ZM 178.1-51L 178.1-51L 173.4-35.8L 189.1-35.8L 184.39999999999998-51Q 184-51.9  183.55-52.3Q 183.1-52.7  182.5-52.7L 182.5-52.7L 180-52.7Q 179.39999999999998-52.7  178.95-52.3Q 178.5-51.9  178.1-51ZM 172.4-17.6L 172.4-3.6Q 172.4-1.7  171.54999999999998-0.85Q 170.7 0  168.79999999999998 0L 168.79999999999998 0L 154.1 0Q 152.2 0  151.35-0.85Q 150.5-1.7  150.5-3.6L 150.5-3.6L 150.5-30Q 150.5-33  151.45-36.9Q 152.4-40.8  154.4-46L 154.4-46L 163.1-68.7Q 163.7-70.4  164.95-71.2Q 166.2-72  168.2-72L 168.2-72L 195.1-72Q 197-72  198.25-71.2Q 199.5-70.4  200.1-68.7L 200.1-68.7L 208.8-46Q 210.8-40.8  211.75-36.9Q 212.7-33  212.7-30L 212.7-30L 212.7-3.6Q 212.7-1.7  211.85-0.85Q 211 0  209.1 0L 209.1 0L 194 0Q 192 0  191.05-0.85Q 190.1-1.7  190.1-3.6L 190.1-3.6L 190.1-17.6L 172.4-17.6ZM 244.1 0L 244.1 0L 228.6 0Q 226.7 0  225.85-0.85Q 225-1.7  225-3.6L 225-3.6L 225-68.4Q 225-70.3  225.85-71.15Q 226.7-72  228.6-72L 228.6-72L 259.2-72Q 272.8-72  277.8-66.6Q 282.8-61.2  282.8-52.5L 282.8-52.5L 282.8-39.7Q 282.8-31  277.8-25.6Q 272.8-20.2  259.2-20.2L 259.2-20.2L 247.7-20.2L 247.7-3.6Q 247.7-1.7  246.85-0.85Q 246 0  244.1 0ZM 256.5-53.3L 247.5-53.3L 247.5-38.2L 256.5-38.2Q 259.4-38.2  260.3-39.7Q 261.2-41.2  261.2-43.1L 261.2-43.1L 261.2-48.4Q 261.2-50.3  260.3-51.8Q 259.4-53.3  256.5-53.3L 256.5-53.3ZM 312.3 0L 312.3 0L 296.8 0Q 294.90000000000003 0  294.05-0.85Q 293.2-1.7  293.2-3.6L 293.2-3.6L 293.2-68.4Q 293.2-70.3  294.05-71.15Q 294.90000000000003-72  296.8-72L 296.8-72L 312.3-72Q 314.2-72  315.05-71.15Q 315.90000000000003-70.3  315.90000000000003-68.4L 315.90000000000003-68.4L 315.90000000000003-46.7L 332.6-46.7L 332.6-68.4Q 332.6-70.3  333.45-71.15Q 334.3-72  336.2-72L 336.2-72L 351.70000000000005-72Q 353.6-72  354.45000000000005-71.15Q 355.3-70.3  355.3-68.4L 355.3-68.4L 355.3-3.6Q 355.3-1.7  354.45000000000005-0.85Q 353.6 0  351.70000000000005 0L 351.70000000000005 0L 336.2 0Q 334.3 0  333.45-0.85Q 332.6-1.7  332.6-3.6L 332.6-3.6L 332.6-25.8L 315.90000000000003-25.8L 315.90000000000003-3.6Q 315.90000000000003-1.7  315.05-0.85Q 314.2 0  312.3 0Z"></path>
</svg>